<svg xmlns="http://www.w3.org/2000/svg" viewBox="0 0 256 256" width="48" height="48"> <path fill="#000000" d="M245.7,121.7c-0.7-5.5-1.1-11-2-16.4c-2.2-12-6.3-23.3-12.3-33.9c-2.3-4.1-4.9-8-7.5-12c-1.5-2.3-4.4-2.7-6.5-1.3c-2.1,1.5-2.7,4.2-1.2,6.5c0.5,0.8,1,1.5,1.6,2.3c11.7,17.2,17.9,36.2,18.8,56.9c0.4,10.2-0.6,20.3-3.1,30.2c-4.5,18.1-13.1,34-25.7,47.7c-10,10.8-21.7,19.3-35.1,25.3c-10.1,4.6-20.7,7.5-31.7,8.8c-2.6,0.3-5.3,0.5-8.2,0.7c0-0.7,0-1.1,0-1.5c0-5.9,0-11.8,0-17.8c0-1.5,0-3.1-0.1-4.6c-0.2-2.9-3-4.8-5.8-4.1c-2.3,0.6-3.5,2.4-3.5,5.1c0,7.1,0,14.3,0,21.4c0,0.4,0,0.9,0,1.3c-55.5-1.8-106.5-49.3-103.7-113.1C22.3,61.3,74,20.7,123.3,19.7c0,0.5,0,0.9,0,1.3c0,6.2,0,12.4,0,18.6c0,1.3,0,2.5,0.1,3.8c0.2,2.8,3,4.8,5.8,4c2.3-0.6,3.5-2.4,3.5-5.1c0-7.2,0-14.3,0-21.4c0-0.4,0-0.9,0-1.3c0.4,0,0.5,0,0.7,0c7.6,0.4,15,1.5,22.4,3.4c0.9,0.2,1.9,0.4,2.8,0.3c2.2-0.3,3.7-2.1,3.8-4.3c0.1-2.4-1.2-4.2-3.6-4.9C152,12.3,145,11,138,10.5c-1.8-0.2-3.6-0.3-5.4-0.5c-2.8,0-5.5,0-8.3,0c-1.8,0.2-3.6,0.3-5.4,0.4c-10,0.7-19.7,2.7-29.1,5.9c-16,5.5-30.1,14-42.4,25.6C35.1,53.4,25.6,67,19.1,82.5c-4.2,10-7,20.4-8.2,31.3c-0.3,3.1-0.5,6.3-0.7,9.4c0,0.4-0.1,0.7-0.2,1.1c0,2.5,0,4.9,0,7.4c0.2,1.8,0.3,3.6,0.4,5.4c0.6,8.1,2,16.1,4.3,23.9c4.3,14.9,11.4,28.5,21.1,40.6c12.4,15.4,27.6,27.1,45.8,34.9c10.3,4.5,21.1,7.3,32.3,8.6c3.1,0.3,6.3,0.5,9.4,0.8c0.3,0,0.7,0.1,1,0.2c2.5,0,4.9,0,7.4,0c1.8-0.1,3.6-0.3,5.4-0.4c10-0.7,19.7-2.7,29.1-5.9c16-5.5,30.1-14,42.4-25.6c12.3-11.5,21.7-25.1,28.3-40.6c4.2-10,7-20.4,8.2-31.3c0.3-3.1,0.5-6.3,0.8-9.4c0-0.4,0.1-0.7,0.2-1.1c0-2.8,0-5.7,0-8.5C245.9,122.7,245.8,122.2,245.7,121.7z"/><path fill="#000000" d="M129.3,142.1c-0.1,3.2,0,6.4,0,9.7c0,0.3,0,0.7,0.1,1.3c13.1,0,26.1,0,39.2,0c0,6.5,0,13,0,19.4c5.7,0,11.2,0,16.9,0c0-6.5,0-12.9,0-19.4c3.7,0,7.1,0,10.7,0c0-4.5,0-8.8,0-13.3c-3.6,0-7.1,0-10.8,0c0-18.9,0-37.6,0-56.2c-0.3-0.1-0.4-0.1-0.5-0.1c-5.8,0-11.5,0-17.3,0c-0.4,0-1,0.5-1.3,0.9c-12.2,18.7-24.3,37.4-36.5,56C129.6,140.8,129.3,141.5,129.3,142.1z M145.8,138.3c6-9.3,12.1-18.6,18.1-28c1.6-2.4,2.7-5.1,4-7.6c0.1-0.3,0.2-0.6,0.4-0.8c0,0,0.1,0,0.2,0c0,12.5,0,25.1,0,37.7c-7.9,0-15.6,0-23.5,0C145.4,139.1,145.6,138.7,145.8,138.3z"/><path fill="#000000" d="M94.5,145.6c6.2-5.6,12.6-11.1,17.6-17.9c4-5.5,7.1-11.4,7.7-18.3c0.5-5.6-0.3-10.9-3.3-15.7c-3.7-6.1-9.4-9.6-16.4-11c-12-2.3-23.4-0.4-33.9,6.1c-0.7,0.4-0.9,0.8-0.9,1.6c0,4.7,0,9.5,0,14.2c0,0.3,0,0.7,0,1.1c1.7-1.2,3.2-2.4,4.7-3.4c6.3-4.1,13.2-6.3,20.9-5.3c5.3,0.7,8.8,3.7,9.8,8.6c0.8,4.4,0.3,8.7-1.8,12.7c-2.3,4.6-5.6,8.3-9.2,11.9c-9.2,9-18.4,17.8-27.7,26.7c-0.8,0.7-1.1,1.5-1.1,2.6c0.1,3.9,0,7.8,0,11.8c0,0.4,0,0.8,0,1.2c19.4,0,38.8,0,58,0c0-5.1,0-10.2,0-15.3c-12.2,0-24.4,0-36.6,0c-0.2-0.2-0.3-0.4-0.5-0.6c0.4-0.2,0.8-0.2,1.1-0.5C86.9,152.5,90.7,149,94.5,145.6z"/></svg>
