<?xml version="1.0" standalone="no"?>
<!DOCTYPE svg PUBLIC "-//W3C//DTD SVG 20010904//EN"
 "http://www.w3.org/TR/2001/REC-SVG-20010904/DTD/svg10.dtd">
<svg version="1.0" xmlns="http://www.w3.org/2000/svg"
 width="260.000000pt" height="260.000000pt" viewBox="0 0 260.000000 260.000000"
 preserveAspectRatio="xMidYMid meet">
<metadata>
Created by potrace 1.11, written by Peter Selinger 2001-2013
</metadata>
<g transform="translate(0.000000,260.000000) scale(0.100000,-0.100000)"
fill="#000000" stroke="none">
<path d="M0 1300 l0 -1300 1300 0 1300 0 0 1300 0 1300 -1300 0 -1300 0 0
-1300z m737 471 c98 -44 153 -136 153 -256 0 -120 -55 -213 -153 -256 -44 -19
-74 -23 -189 -27 l-138 -4 0 -189 0 -189 -65 0 -65 0 0 476 0 476 203 -4 c186
-3 206 -5 254 -27z m453 -446 l0 -475 -65 0 -65 0 0 475 0 475 65 0 65 0 0
-475z m555 178 c59 -164 114 -309 120 -322 12 -24 8 -34 223 547 l27 72 97 0
98 0 0 -475 0 -475 -65 0 -65 0 -2 410 -3 410 -104 -282 c-57 -156 -111 -300
-119 -320 l-14 -38 -63 0 -63 0 -14 38 c-8 20 -62 164 -119 320 l-104 282 -3
-410 -2 -410 -65 0 -65 0 0 475 0 475 98 0 98 0 109 -297z"/>
<path d="M410 1515 l0 -187 118 3 c139 5 174 19 210 89 45 89 17 211 -58 255
-28 16 -57 21 -152 24 l-118 3 0 -187z"/>
</g>
</svg>
